<svg xmlns="http://www.w3.org/2000/svg" width="32" height="32" viewBox="0 0 32 32" role="img" aria-label="DAH">
  <rect width="32" height="32" rx="6" fill="#08090A"/>
  <g fill="#F7F8F8" transform="translate(3.15 11.32) scale(0.39)">
    <g transform="translate(0 0)">
      <path fill-rule="evenodd" d="M0,0 H10 C15.52,0 19,5 19,12 C19,19 15.52,24 10,24 H0 Z M7,6 H10 C12.2,6 14,8.7 14,12 C14,15.3 12.2,18 10,18 H7 Z"/>
    </g>
    <g transform="translate(23 0)">
      <path fill-rule="evenodd" d="M0,24 L7,0 H13 L20,24 H13.2 L11.5,16.5 H8.5 L6.8,24 Z M10,3.5 L11.5,14 H8.5 Z"/>
    </g>
    <g transform="translate(47 0)">
      <path d="M0,0 H7 V24 H0 Z M12,0 H19 V24 H12 Z M7,8.5 H12 V15.5 H7 Z"/>
    </g>
  </g>
</svg>
